<svg width="512" height="512" viewBox="0 0 512 512" fill="none" xmlns="http://www.w3.org/2000/svg">
<g clip-path="url(#clip0_43_254)">
<rect width="512" height="512" rx="120" fill="white"/>
<path d="M256 70L440 170L256 270L72 170L256 70Z" fill="#FFB347" stroke="black" stroke-width="10" stroke-linecap="round" stroke-linejoin="round"/>
<path d="M154 145L202 170L154 195L106 170L154 145Z" fill="#CDCCCC" stroke="black" stroke-width="8" stroke-linecap="round" stroke-linejoin="round"/>
<path d="M72 170L256 270V450L72 350V170Z" fill="#FFA94D" stroke="black" stroke-width="10" stroke-linecap="round" stroke-linejoin="round"/>
<path d="M256 270L440 170V350L256 450V270Z" fill="#FF9933" stroke="black" stroke-width="10" stroke-linecap="round" stroke-linejoin="round"/>
<path d="M330 356.286L384 327V379.714L330 409V356.286Z" fill="#433E38" stroke="black" stroke-width="8" stroke-linecap="round" stroke-linejoin="round"/>
<path d="M170 118L348 216" stroke="black" stroke-width="10" stroke-linecap="round"/>
<path d="M455.051 212H57.9488C44.17 212 33 222.745 33 236V308C33 321.255 44.17 332 57.9488 332H455.051C468.83 332 480 321.255 480 308V236C480 222.745 468.83 212 455.051 212Z" fill="#6495ED" fill-opacity="0.85" stroke="black" stroke-width="8" stroke-linecap="round" stroke-linejoin="round"/>
<path d="M127.805 285.56C127.805 288.593 127.175 291.183 125.915 293.33C124.655 295.43 122.905 297.04 120.665 298.16C118.471 299.28 115.951 299.84 113.105 299.84C110.865 299.84 108.765 299.56 106.805 299C104.891 298.487 103.235 297.857 101.835 297.11C100.435 296.363 99.408 295.733 98.7547 295.22V284.37H100.155C101.648 285.77 103.468 287.007 105.615 288.08C107.761 289.107 109.768 289.62 111.635 289.62C112.568 289.62 113.385 289.48 114.085 289.2C114.831 288.873 115.415 288.43 115.835 287.87C116.255 287.31 116.465 286.657 116.465 285.91C116.465 284.697 116.068 283.717 115.275 282.97C114.528 282.223 113.338 281.383 111.705 280.45L106.805 277.65C105.358 276.81 103.935 275.807 102.535 274.64C101.135 273.473 99.968 272.003 99.0347 270.23C98.148 268.457 97.7047 266.263 97.7047 263.65C97.7047 260.523 98.358 257.887 99.6647 255.74C100.971 253.593 102.698 251.983 104.845 250.91C107.038 249.79 109.465 249.23 112.125 249.23C114.131 249.23 115.975 249.44 117.655 249.86C119.335 250.233 120.851 250.77 122.205 251.47C123.605 252.123 124.771 252.917 125.705 253.85V264.7H124.305C122.811 263.113 121.061 261.853 119.055 260.92C117.095 259.94 115.158 259.45 113.245 259.45C112.078 259.45 111.075 259.753 110.235 260.36C109.441 260.92 109.045 261.76 109.045 262.88C109.045 264.047 109.581 265.073 110.655 265.96C111.728 266.847 113.198 267.85 115.065 268.97L120.105 272.05C121.691 273.03 123.045 274.15 124.165 275.41C125.331 276.623 126.218 278.07 126.825 279.75C127.478 281.383 127.805 283.32 127.805 285.56ZM157.567 250V260.22H148.747V299H137.687V260.22H128.587V250H157.567ZM158.613 274.5C158.613 268.573 159.57 263.743 161.483 260.01C163.396 256.277 165.893 253.547 168.973 251.82C172.1 250.047 175.483 249.16 179.123 249.16C182.763 249.16 186.123 250.047 189.203 251.82C192.33 253.547 194.85 256.277 196.763 260.01C198.676 263.743 199.633 268.573 199.633 274.5C199.633 280.427 198.676 285.257 196.763 288.99C194.85 292.723 192.33 295.477 189.203 297.25C186.123 298.977 182.763 299.84 179.123 299.84C175.483 299.84 172.1 298.977 168.973 297.25C165.893 295.477 163.396 292.723 161.483 288.99C159.57 285.257 158.613 280.427 158.613 274.5ZM170.093 274.5C170.093 277.767 170.49 280.497 171.283 282.69C172.076 284.883 173.15 286.54 174.503 287.66C175.903 288.78 177.443 289.34 179.123 289.34C180.803 289.34 182.343 288.78 183.743 287.66C185.143 286.54 186.24 284.883 187.033 282.69C187.873 280.497 188.293 277.767 188.293 274.5C188.293 271.187 187.873 268.433 187.033 266.24C186.193 264.047 185.073 262.413 183.673 261.34C182.32 260.22 180.803 259.66 179.123 259.66C177.443 259.66 175.903 260.22 174.503 261.34C173.15 262.46 172.076 264.117 171.283 266.31C170.49 268.503 170.093 271.233 170.093 274.5ZM202.431 274.5C202.431 270.16 203.015 266.403 204.181 263.23C205.348 260.057 206.911 257.443 208.871 255.39C210.878 253.29 213.141 251.75 215.661 250.77C218.181 249.743 220.795 249.23 223.501 249.23C226.115 249.23 228.261 249.487 229.941 250C231.668 250.513 232.905 251.097 233.651 251.75V262.32H232.251C231.645 261.667 230.758 261.037 229.591 260.43C228.471 259.777 227.095 259.45 225.461 259.45C223.175 259.45 221.168 260.033 219.441 261.2C217.715 262.32 216.361 264 215.381 266.24C214.401 268.48 213.911 271.233 213.911 274.5C213.911 277.767 214.401 280.52 215.381 282.76C216.361 285 217.715 286.703 219.441 287.87C221.168 288.99 223.175 289.55 225.461 289.55C227.095 289.55 228.471 289.247 229.591 288.64C230.758 287.987 231.645 287.333 232.251 286.68H233.651V297.25C232.905 297.857 231.668 298.44 229.941 299C228.261 299.513 226.115 299.77 223.501 299.77C220.795 299.77 218.181 299.28 215.661 298.3C213.141 297.273 210.878 295.733 208.871 293.68C206.911 291.58 205.348 288.943 204.181 285.77C203.015 282.597 202.431 278.84 202.431 274.5ZM238.908 299V250H250.108V268.76H251.158L260.468 250H272.158V251.75L259.908 274.15L272.158 297.25V299H260.468L251.158 279.68H250.108V299H238.908ZM300.202 250V260.08H286.062V271.49C287.462 270.977 288.908 270.58 290.402 270.3C291.895 269.973 293.365 269.763 294.812 269.67C296.258 269.577 297.612 269.6 298.872 269.74V279.47L298.172 279.89C297.192 279.563 296.048 279.377 294.742 279.33C293.482 279.283 292.105 279.353 290.612 279.54C289.118 279.727 287.602 280.077 286.062 280.59V299H275.002V250H300.202ZM304.738 250H315.798V288.92H327.978V299H304.738V250ZM328.281 274.5C328.281 268.573 329.238 263.743 331.151 260.01C333.064 256.277 335.561 253.547 338.641 251.82C341.768 250.047 345.151 249.16 348.791 249.16C352.431 249.16 355.791 250.047 358.871 251.82C361.998 253.547 364.518 256.277 366.431 260.01C368.344 263.743 369.301 268.573 369.301 274.5C369.301 280.427 368.344 285.257 366.431 288.99C364.518 292.723 361.998 295.477 358.871 297.25C355.791 298.977 352.431 299.84 348.791 299.84C345.151 299.84 341.768 298.977 338.641 297.25C335.561 295.477 333.064 292.723 331.151 288.99C329.238 285.257 328.281 280.427 328.281 274.5ZM339.761 274.5C339.761 277.767 340.158 280.497 340.951 282.69C341.744 284.883 342.818 286.54 344.171 287.66C345.571 288.78 347.111 289.34 348.791 289.34C350.471 289.34 352.011 288.78 353.411 287.66C354.811 286.54 355.908 284.883 356.701 282.69C357.541 280.497 357.961 277.767 357.961 274.5C357.961 271.187 357.541 268.433 356.701 266.24C355.861 264.047 354.741 262.413 353.341 261.34C351.988 260.22 350.471 259.66 348.791 259.66C347.111 259.66 345.571 260.22 344.171 261.34C342.818 262.46 341.744 264.117 340.951 266.31C340.158 268.503 339.761 271.233 339.761 274.5ZM370.234 250H381.784L385.564 283.74H386.264L390.674 250H400.684L405.094 283.74H405.864L409.574 250H421.124V251.75L413.564 299H399.214L396.064 271H395.364L392.144 299H377.794L370.234 251.75V250Z" fill="white"/>
</g>
<defs>
<clipPath id="clip0_43_254">
<rect width="512" height="512" fill="white"/>
</clipPath>
</defs>
</svg>
